<svg width="529" height="108" viewBox="0 0 529 108" fill="none" xmlns="http://www.w3.org/2000/svg">
<path d="M22.304 85.752C18.3787 85.752 14.752 84.8133 11.424 82.936C8.18133 81.0587 5.57867 78.4987 3.616 75.256C1.73867 71.928 0.8 68.3013 0.8 64.376C0.8 60.3653 1.73867 56.7387 3.616 53.496C5.57867 50.168 8.18133 47.5653 11.424 45.688C14.752 43.7253 18.3787 42.744 22.304 42.744C26.3147 42.744 29.9413 43.7253 33.184 45.688C36.512 47.5653 39.1147 50.168 40.992 53.496C42.8693 56.7387 43.808 60.3653 43.808 64.376C43.808 68.3013 42.8693 71.928 40.992 75.256C39.1147 78.4987 36.512 81.0587 33.184 82.936C29.9413 84.8133 26.3147 85.752 22.304 85.752ZM117.809 107L91.441 67.704V107H63.025V16.376H91.441V54.52L117.425 16.376H149.553L118.321 59.768L151.601 107H117.809ZM173.986 29.048C169.037 29.048 165.069 27.7253 162.082 25.08C159.095 22.4347 157.602 19.1067 157.602 15.096C157.602 11 159.095 7.62933 162.082 4.98399C165.069 2.25333 169.037 0.887993 173.986 0.887993C178.85 0.887993 182.775 2.25333 185.762 4.98399C188.749 7.62933 190.242 11 190.242 15.096C190.242 19.1067 188.749 22.4347 185.762 25.08C182.775 27.7253 178.85 29.048 173.986 29.048ZM188.066 34.808V107H159.65V34.808H188.066ZM233.028 107.896C226.201 107.896 220.143 106.787 214.852 104.568C209.647 102.349 205.508 99.2773 202.436 95.352C199.364 91.4267 197.615 86.9893 197.188 82.04H224.452C224.793 84.1733 225.689 85.752 227.14 86.776C228.676 87.8 230.596 88.312 232.9 88.312C234.351 88.312 235.503 88.0133 236.356 87.416C237.209 86.7333 237.636 85.9227 237.636 84.984C237.636 83.3627 236.74 82.2107 234.948 81.528C233.156 80.8453 230.127 80.0773 225.86 79.224C220.655 78.2 216.345 77.0907 212.932 75.896C209.604 74.7013 206.66 72.6533 204.1 69.752C201.625 66.8507 200.388 62.84 200.388 57.72C200.388 53.2827 201.54 49.272 203.844 45.688C206.233 42.0187 209.732 39.16 214.34 37.112C218.948 34.9787 224.537 33.912 231.108 33.912C240.836 33.912 248.431 36.3013 253.892 41.08C259.439 45.8587 262.767 52.088 263.876 59.768H238.66C238.233 57.8053 237.337 56.312 235.972 55.288C234.607 54.1787 232.772 53.624 230.468 53.624C229.017 53.624 227.908 53.9227 227.14 54.52C226.372 55.032 225.988 55.8427 225.988 56.952C225.988 58.4027 226.884 59.512 228.676 60.28C230.468 60.9627 233.327 61.688 237.252 62.456C242.457 63.48 246.852 64.632 250.436 65.912C254.02 67.192 257.135 69.4107 259.78 72.568C262.425 75.64 263.748 79.9067 263.748 85.368C263.748 89.6347 262.511 93.4747 260.036 96.888C257.561 100.301 253.977 102.989 249.284 104.952C244.676 106.915 239.257 107.896 233.028 107.896ZM325.585 34.296C333.862 34.296 340.305 37.0693 344.913 42.616C349.606 48.1627 351.953 55.672 351.953 65.144V107H323.665V68.728C323.665 65.3147 322.726 62.6267 320.849 60.664C319.057 58.616 316.625 57.592 313.553 57.592C310.396 57.592 307.921 58.616 306.129 60.664C304.337 62.6267 303.441 65.3147 303.441 68.728V107H275.025V12.28H303.441V45.816C305.66 42.4027 308.604 39.6293 312.273 37.496C316.028 35.3627 320.465 34.296 325.585 34.296ZM360.435 70.904C360.435 63.3093 361.715 56.7387 364.275 51.192C366.92 45.56 370.504 41.2933 375.027 38.392C379.55 35.4053 384.627 33.912 390.259 33.912C394.952 33.912 399.006 34.8933 402.419 36.856C405.832 38.7333 408.435 41.336 410.227 44.664V34.808H438.515V107H410.227V97.144C408.435 100.472 405.832 103.117 402.419 105.08C399.006 106.957 394.952 107.896 390.259 107.896C384.627 107.896 379.55 106.445 375.027 103.544C370.504 100.557 366.92 96.2907 364.275 90.744C361.715 85.112 360.435 78.4987 360.435 70.904ZM410.227 70.904C410.227 67.064 409.246 64.0773 407.283 61.944C405.32 59.8107 402.803 58.744 399.731 58.744C396.659 58.744 394.142 59.8107 392.179 61.944C390.216 64.0773 389.235 67.064 389.235 70.904C389.235 74.744 390.216 77.7307 392.179 79.864C394.142 81.9973 396.659 83.064 399.731 83.064C402.803 83.064 405.32 81.9973 407.283 79.864C409.246 77.7307 410.227 74.744 410.227 70.904ZM501.835 34.296C510.112 34.296 516.555 37.0693 521.163 42.616C525.856 48.1627 528.203 55.672 528.203 65.144V107H499.915V68.728C499.915 65.3147 498.976 62.6267 497.099 60.664C495.307 58.616 492.875 57.592 489.803 57.592C486.646 57.592 484.171 58.616 482.379 60.664C480.587 62.6267 479.691 65.3147 479.691 68.728V107H451.275V34.808H479.691V45.816C481.91 42.4027 484.854 39.6293 488.523 37.496C492.278 35.3627 496.715 34.296 501.835 34.296Z" fill="#FB510C"/>
</svg>
